<?xml version="1.0" encoding="iso-8859-1"?>
<!-- Generator: Adobe Illustrator 19.0.0, SVG Export Plug-In . SVG Version: 6.00 Build 0)  -->
<svg version="1.1" id="Capa_1" xmlns="http://www.w3.org/2000/svg" xmlns:xlink="http://www.w3.org/1999/xlink" x="0px" y="0px"
	 viewBox="0 0 512 512" style="enable-background:new 0 0 512 512;" xml:space="preserve">
<g>
	<g>
		<path d="M261.739,302.176c-5.605-2.321-12.056-1.038-16.344,3.252L215.4,335.423c-5.857,5.857-5.857,15.352,0,21.21
			s15.353,5.857,21.21-0.001l4.393-4.392v53.778c0,8.283,6.715,14.997,14.998,14.997s14.998-6.715,14.998-14.997v-89.985
			C270.998,309.966,267.343,304.497,261.739,302.176z"/>
	</g>
</g>
<g>
	<g>
		<path d="M496.96,361.025H360.983V256.042c0-8.283-6.715-14.997-14.998-14.997h-179.97c-8.283,0-14.998,6.715-14.998,14.997v74.988
			H15.04c-8.283,0-14.998,6.715-14.998,14.997v150.975C0.042,505.285,6.757,512,15.04,512H496.96
			c8.283,0,14.998-6.715,14.998-14.998v-120.98C511.958,367.74,505.243,361.025,496.96,361.025z M151.017,482.005H30.037v-120.98
			h120.98V482.005z M330.988,482.005H181.012V271.039h0h149.975V482.005z M481.963,482.005h-120.98V391.02h120.98V482.005z"/>
	</g>
</g>
<g>
	<g>
		<path d="M352.251,73.586l-56.725-8.993L270.592,8.851c-5.214-11.658-21.741-11.832-27.227-0.333l-26.268,55.063l-56.926,7.522
			c-12.294,1.624-17.418,16.693-8.642,25.472l40.775,40.787l-10.483,56.713c-2.255,12.197,10.492,21.722,21.554,16.09l51.391-26.176
			l50.698,27.495c10.91,5.918,23.901-3.283,21.963-15.527l-9.014-56.965l41.816-39.72C369.224,90.73,364.51,75.53,352.251,73.586z
			 M292.04,122.675c-3.579,3.399-5.256,8.343-4.484,13.218l5.497,34.738l-30.916-16.767c-4.336-2.352-9.555-2.423-13.957-0.181
			l-31.339,15.962l6.393-34.583c0.897-4.853-0.651-9.838-4.141-13.33l-24.865-24.873l34.867-4.607
			c5.032-0.665,9.386-3.829,11.572-8.411l15.797-33.116l15,33.531c2.07,4.626,6.336,7.895,11.342,8.689l34.736,5.507L292.04,122.675
			z"/>
	</g>
</g>
<g>
</g>
<g>
</g>
<g>
</g>
<g>
</g>
<g>
</g>
<g>
</g>
<g>
</g>
<g>
</g>
<g>
</g>
<g>
</g>
<g>
</g>
<g>
</g>
<g>
</g>
<g>
</g>
<g>
</g>
</svg>
